<svg width="120" height="40" viewBox="0 0 120 40" fill="none" xmlns="http://www.w3.org/2000/svg">
<path d="M110.135 7.92969e-06H9.53468C9.16798 7.92969e-06 8.80568 7.92975e-06 8.43995 0.00200793C8.1338 0.00400793 7.83009 0.00981793 7.521 0.0147079C6.84951 0.0226097 6.17961 0.0816842 5.5171 0.191418C4.85552 0.303541 4.21467 0.514924 3.61622 0.818418C3.0185 1.12448 2.47235 1.52218 1.99757 1.99708C1.5203 2.47064 1.12246 3.01802 0.81935 3.61817C0.5154 4.21712 0.304641 4.85895 0.19435 5.52149C0.0830109 6.18319 0.0230984 6.85253 0.01515 7.52349C0.00587 7.83009 0.00489 8.13771 0 8.44435V31.5586C0.00489 31.8691 0.00587 32.1699 0.01515 32.4805C0.0231008 33.1514 0.0830134 33.8207 0.19435 34.4824C0.304336 35.1453 0.515108 35.7875 0.81935 36.3867C1.12233 36.9849 1.52022 37.5301 1.99757 38.001C2.47054 38.478 3.01705 38.876 3.61622 39.1797C4.21467 39.484 4.85545 39.6967 5.5171 39.8105C6.17972 39.9194 6.84956 39.9785 7.521 39.9873C7.83009 39.9941 8.1338 39.998 8.43995 39.998C8.80567 40 9.168 40 9.53468 40H110.135C110.494 40 110.859 40 111.219 39.998C111.523 39.998 111.836 39.9941 112.141 39.9873C112.811 39.9789 113.479 39.9198 114.141 39.8105C114.804 39.6959 115.448 39.4833 116.049 39.1797C116.647 38.8758 117.193 38.4779 117.666 38.001C118.142 37.5282 118.541 36.9835 118.848 36.3867C119.15 35.7871 119.358 35.145 119.467 34.4824C119.578 33.8206 119.64 33.1515 119.652 32.4805C119.656 32.1699 119.656 31.8691 119.656 31.5586C119.664 31.1953 119.664 30.834 119.664 30.4648V9.53614C119.664 9.16993 119.664 8.80665 119.656 8.44435C119.656 8.13771 119.656 7.83009 119.652 7.52345C119.64 6.85243 119.578 6.18324 119.467 5.52145C119.358 4.85929 119.149 4.21751 118.848 3.61813C118.23 2.4152 117.252 1.43603 116.049 0.818328C115.448 0.515575 114.804 0.304248 114.141 0.191328C113.48 0.0811107 112.811 0.0220157 112.141 0.0145679C111.836 0.00968793 111.523 0.00382793 111.219 0.00187793C110.859 -0.00012207 110.494 -0.00012207 110.135 -0.00012207V7.92969e-06Z" fill="#A6A6A6"/>
<path d="M8.44481 39.125C8.14013 39.125 7.84281 39.1211 7.54052 39.1143C6.9143 39.1061 6.28954 39.0516 5.67138 38.9512C5.09497 38.8519 4.53658 38.6673 4.01464 38.4033C3.49748 38.1415 3.02579 37.7983 2.61764 37.3867C2.20358 36.98 1.85885 36.5082 1.59713 35.9902C1.33252 35.4688 1.14939 34.9099 1.05413 34.333C0.95125 33.7131 0.89559 33.0863 0.887626 32.458C0.881286 32.2471 0.872986 31.5449 0.872986 31.5449V8.44434C0.872986 8.44434 0.881826 7.75293 0.887676 7.5498C0.895302 6.92248 0.950638 6.29665 1.05321 5.67773C1.14864 5.09925 1.33191 4.53875 1.59667 4.01563C1.85743 3.49794 2.20024 3.02586 2.61181 2.61768C3.02291 2.20562 3.49611 1.8606 4.01415 1.59521C4.53489 1.33209 5.09222 1.14873 5.66747 1.05127C6.28766 0.949836 6.91459 0.894996 7.54298 0.88721L8.4453 0.875H111.214L112.127 0.8877C112.75 0.895099 113.371 0.94945 113.985 1.05029C114.566 1.14898 115.13 1.33362 115.656 1.59814C116.694 2.13299 117.539 2.97916 118.071 4.01807C118.332 4.53758 118.512 5.09351 118.606 5.66699C118.71 6.29099 118.768 6.92174 118.78 7.5542C118.783 7.8374 118.783 8.1416 118.783 8.44434C118.791 8.81934 118.791 9.17627 118.791 9.53613V30.4648C118.791 30.8281 118.791 31.1826 118.783 31.54C118.783 31.8652 118.783 32.1631 118.779 32.4697C118.768 33.0909 118.71 33.7104 118.608 34.3232C118.515 34.9043 118.333 35.4675 118.068 35.9932C117.805 36.5056 117.462 36.9733 117.053 37.3789C116.644 37.7927 116.172 38.1379 115.653 38.4014C115.128 38.6674 114.566 38.8527 113.985 38.9512C113.367 39.0522 112.742 39.1067 112.116 39.1143C111.823 39.1211 111.517 39.125 111.219 39.125L110.135 39.127L8.44481 39.125Z" fill="black"/>
<path d="M24.7689 20.3011C24.7796 19.4664 25.0013 18.648 25.4134 17.9221C25.8254 17.1961 26.4143 16.5862 27.1254 16.149C26.6737 15.5038 26.0777 14.9729 25.3849 14.5983C24.6921 14.2238 23.9215 14.016 23.1343 13.9913C21.455 13.8151 19.8271 14.9962 18.9714 14.9962C18.0991 14.9962 16.7816 14.0088 15.3629 14.038C14.4452 14.0677 13.5509 14.3345 12.767 14.8126C11.9831 15.2906 11.3364 15.9636 10.89 16.7659C8.95595 20.1143 10.3985 25.0354 12.2511 27.742C13.178 29.0673 14.2613 30.5478 15.6788 30.4953C17.0658 30.4377 17.5839 29.6108 19.2582 29.6108C20.9169 29.6108 21.403 30.4953 22.8492 30.4619C24.3376 30.4377 25.2753 29.1306 26.1697 27.7927C26.8357 26.8484 27.3481 25.8047 27.6881 24.7002C26.8234 24.3345 26.0855 23.7223 25.5664 22.94C25.0472 22.1577 24.7699 21.2399 24.7689 20.3011V20.3011Z" fill="white"/>
<path d="M22.0373 12.2113C22.8488 11.2371 23.2486 9.98494 23.1518 8.7207C21.912 8.85092 20.7667 9.44348 19.9442 10.3803C19.5421 10.838 19.2341 11.3704 19.0378 11.9472C18.8416 12.524 18.7609 13.1337 18.8005 13.7417C19.4206 13.7481 20.0341 13.6137 20.5948 13.3486C21.1555 13.0835 21.6487 12.6946 22.0373 12.2113Z" fill="white"/>
<path d="M42.3022 27.1397H37.5688L36.4321 30.4961H34.4272L38.9106 18.0781H40.9936L45.477 30.4961H43.438L42.3022 27.1397ZM38.0591 25.5908H41.8111L39.9615 20.1436H39.9097L38.0591 25.5908Z" fill="white"/>
<path d="M55.1597 25.9695C55.1597 28.7829 53.6538 30.5905 51.3814 30.5905C50.8057 30.6207 50.2332 30.4881 49.7294 30.2079C49.2256 29.9278 48.8109 29.5114 48.5327 29.0065H48.4897V33.4909H46.6313V21.4421H48.4302V22.948H48.4644C48.7553 22.4455 49.1771 22.0313 49.6847 21.7495C50.1923 21.4676 50.7669 21.3287 51.3472 21.3474C53.645 21.3474 55.1597 23.1638 55.1597 25.9695ZM53.2495 25.9695C53.2495 24.1365 52.3023 22.9314 50.857 22.9314C49.437 22.9314 48.482 24.1618 48.482 25.9695C48.482 27.7937 49.437 29.0154 50.857 29.0154C52.3023 29.0154 53.2495 27.8191 53.2495 25.9695Z" fill="white"/>
<path d="M65.1245 25.9694C65.1245 28.7829 63.6187 30.5905 61.3462 30.5905C60.7706 30.6206 60.1981 30.488 59.6943 30.2079C59.1905 29.9278 58.7758 29.5114 58.4976 29.0065H58.4546V33.4909H56.5962V21.4421H58.395V22.948H58.4292C58.7201 22.4455 59.1419 22.0313 59.6495 21.7495C60.1571 21.4676 60.7317 21.3287 61.312 21.3474C63.6099 21.3474 65.1245 23.1638 65.1245 25.9694ZM63.2144 25.9694C63.2144 24.1364 62.2671 22.9314 60.8218 22.9314C59.4019 22.9314 58.4468 24.1618 58.4468 25.9694C58.4468 27.7937 59.4019 29.0153 60.8218 29.0153C62.2671 29.0153 63.2144 27.8191 63.2144 25.9694H63.2144Z" fill="white"/>
<path d="M71.7105 27.0362C71.8482 28.2676 73.0445 29.0762 74.6792 29.0762C76.2456 29.0762 77.3726 28.2676 77.3726 27.1572C77.3726 26.1934 76.6929 25.6162 75.0835 25.2207L73.4742 24.833C71.1939 24.2822 70.1353 23.2158 70.1353 21.4854C70.1353 19.3428 72.0025 17.8711 74.6538 17.8711C77.2778 17.8711 79.0767 19.3428 79.1372 21.4854H77.2612C77.1489 20.2461 76.1245 19.4981 74.6274 19.4981C73.1304 19.4981 72.106 20.2549 72.106 21.3565C72.106 22.2344 72.7603 22.751 74.3608 23.1465L75.729 23.4824C78.2769 24.0849 79.3355 25.1084 79.3355 26.9248C79.3355 29.248 77.4849 30.7031 74.5415 30.7031C71.7876 30.7031 69.9282 29.2822 69.8081 27.0361L71.7105 27.0362Z" fill="white"/>
<path d="M83.3462 19.2998V21.4424H85.0679V22.9141H83.3462V27.9053C83.3462 28.6807 83.6909 29.042 84.4477 29.042C84.6521 29.0384 84.8562 29.0241 85.0591 28.999V30.4619C84.7188 30.5255 84.3729 30.5543 84.0268 30.5478C82.1938 30.5478 81.479 29.8593 81.479 28.1035V22.9141H80.1626V21.4424H81.479V19.2998H83.3462Z" fill="white"/>
<path d="M86.065 25.9697C86.065 23.1211 87.7427 21.3311 90.3589 21.3311C92.9839 21.3311 94.6539 23.1211 94.6539 25.9697C94.6539 28.8262 92.9927 30.6084 90.3589 30.6084C87.7261 30.6084 86.065 28.8262 86.065 25.9697ZM92.7603 25.9697C92.7603 24.0156 91.8648 22.8623 90.3589 22.8623C88.8531 22.8623 87.9585 24.0244 87.9585 25.9697C87.9585 27.9316 88.8531 29.0762 90.3589 29.0762C91.8648 29.0762 92.7603 27.9316 92.7603 25.9697H92.7603Z" fill="white"/>
<path d="M96.186 21.442H97.9585V22.983H98.0015C98.1214 22.5017 98.4034 22.0764 98.8 21.7785C99.1966 21.4806 99.6836 21.3284 100.179 21.3473C100.393 21.3465 100.607 21.3698 100.816 21.4166V23.1549C100.546 23.0723 100.264 23.0343 99.981 23.0426C99.711 23.0316 99.4418 23.0792 99.192 23.1821C98.9421 23.285 98.7175 23.4408 98.5335 23.6386C98.3496 23.8365 98.2106 24.0719 98.1262 24.3286C98.0417 24.5852 98.0139 24.8571 98.0444 25.1256V30.4957H96.186L96.186 21.442Z" fill="white"/>
<path d="M109.384 27.8369C109.134 29.4805 107.534 30.6084 105.486 30.6084C102.852 30.6084 101.217 28.8437 101.217 26.0127C101.217 23.1729 102.861 21.3311 105.408 21.3311C107.913 21.3311 109.488 23.0518 109.488 25.7969V26.4336H103.093V26.5459C103.064 26.8791 103.105 27.2148 103.216 27.5306C103.326 27.8464 103.502 28.1352 103.732 28.3778C103.963 28.6203 104.242 28.8111 104.552 28.9374C104.861 29.0637 105.195 29.1226 105.529 29.1103C105.968 29.1515 106.409 29.0498 106.785 28.8203C107.162 28.5909 107.455 28.246 107.62 27.8369L109.384 27.8369ZM103.102 25.1348H107.628C107.645 24.8352 107.6 24.5354 107.495 24.2541C107.39 23.9729 107.229 23.7164 107.02 23.5006C106.812 23.2849 106.561 23.1145 106.283 23.0003C106.006 22.8861 105.708 22.8305 105.408 22.8369C105.105 22.8351 104.805 22.8933 104.525 23.008C104.245 23.1227 103.99 23.2918 103.776 23.5054C103.562 23.7191 103.392 23.973 103.276 24.2527C103.16 24.5323 103.101 24.8321 103.102 25.1348V25.1348Z" fill="white"/>
<path d="M37.8262 8.73053C38.2158 8.70257 38.6067 8.76143 38.9709 8.90286C39.335 9.04429 39.6632 9.26477 39.9317 9.5484C40.2003 9.83202 40.4026 10.1717 40.524 10.543C40.6454 10.9143 40.6829 11.3079 40.6338 11.6954C40.6338 13.6016 39.6035 14.6974 37.8262 14.6974H35.6709V8.73053H37.8262ZM36.5976 13.8535H37.7226C38.0011 13.8702 38.2797 13.8245 38.5382 13.7199C38.7967 13.6153 39.0287 13.4543 39.2172 13.2488C39.4057 13.0432 39.546 12.7982 39.6278 12.5316C39.7097 12.265 39.7311 11.9834 39.6904 11.7075C39.7281 11.4327 39.7046 11.1529 39.6215 10.8883C39.5383 10.6236 39.3977 10.3806 39.2096 10.1767C39.0216 9.97273 38.7907 9.81292 38.5337 9.70868C38.2766 9.60445 37.9996 9.55836 37.7226 9.57374H36.5976V13.8535Z" fill="white"/>
<path d="M41.6806 12.4439C41.6523 12.148 41.6862 11.8494 41.78 11.5674C41.8739 11.2853 42.0256 11.026 42.2256 10.806C42.4255 10.586 42.6692 10.4102 42.9411 10.2899C43.2129 10.1697 43.5069 10.1075 43.8042 10.1075C44.1014 10.1075 44.3954 10.1697 44.6673 10.2899C44.9391 10.4102 45.1828 10.586 45.3828 10.806C45.5827 11.026 45.7345 11.2853 45.8283 11.5674C45.9222 11.8494 45.956 12.148 45.9277 12.4439C45.9566 12.7401 45.9231 13.0391 45.8295 13.3217C45.7359 13.6042 45.5843 13.864 45.3843 14.0844C45.1843 14.3048 44.9404 14.481 44.6683 14.6015C44.3961 14.722 44.1018 14.7843 43.8042 14.7843C43.5065 14.7843 43.2122 14.722 42.9401 14.6015C42.668 14.481 42.4241 14.3048 42.2241 14.0844C42.0241 13.864 41.8724 13.6042 41.7788 13.3217C41.6852 13.0391 41.6518 12.7401 41.6806 12.4439V12.4439ZM45.0136 12.4439C45.0136 11.4679 44.5752 10.8971 43.8056 10.8971C43.0332 10.8971 42.5986 11.4679 42.5986 12.4439C42.5986 13.4278 43.0332 13.9942 43.8056 13.9942C44.5752 13.9942 45.0136 13.4239 45.0136 12.4439H45.0136Z" fill="white"/>
<path d="M51.5732 14.6973H50.6514L49.7207 11.3809H49.6504L48.7236 14.6973H47.8105L46.5693 10.1943H47.4707L48.2773 13.6303H48.3438L49.2695 10.1943H50.1221L51.0479 13.6303H51.1182L51.9209 10.1943H52.8096L51.5732 14.6973Z" fill="white"/>
<path d="M53.8535 10.1939H54.709V10.9092H54.7754C54.888 10.6523 55.0781 10.4369 55.3189 10.2931C55.5598 10.1493 55.8395 10.0842 56.1191 10.107C56.3382 10.0905 56.5582 10.1235 56.7628 10.2036C56.9674 10.2837 57.1514 10.4088 57.3011 10.5697C57.4508 10.7305 57.5623 10.923 57.6275 11.1328C57.6927 11.3426 57.7099 11.5644 57.6777 11.7818V14.6968H56.7891V12.0049C56.7891 11.2813 56.4746 10.9214 55.8174 10.9214C55.6686 10.9145 55.5201 10.9398 55.3821 10.9957C55.244 11.0515 55.1197 11.1365 55.0175 11.2449C54.9154 11.3533 54.8379 11.4825 54.7904 11.6236C54.7429 11.7647 54.7264 11.9145 54.7422 12.0625V14.6968H53.8535L53.8535 10.1939Z" fill="white"/>
<path d="M59.0938 8.43652H59.9824V14.6973H59.0938V8.43652Z" fill="white"/>
<path d="M61.2178 12.4439C61.1895 12.1479 61.2234 11.8494 61.3172 11.5673C61.4111 11.2852 61.5629 11.0259 61.7628 10.8059C61.9628 10.5859 62.2065 10.4101 62.4784 10.2898C62.7503 10.1696 63.0443 10.1074 63.3416 10.1074C63.6389 10.1074 63.9329 10.1696 64.2047 10.2898C64.4766 10.4101 64.7203 10.5859 64.9203 10.8059C65.1203 11.0259 65.272 11.2852 65.3659 11.5673C65.4598 11.8494 65.4936 12.1479 65.4653 12.4439C65.4942 12.7401 65.4607 13.0391 65.3671 13.3216C65.2734 13.6042 65.1217 13.864 64.9217 14.0844C64.7217 14.3048 64.4778 14.4809 64.2057 14.6014C63.9335 14.722 63.6392 14.7842 63.3416 14.7842C63.0439 14.7842 62.7496 14.722 62.4775 14.6014C62.2053 14.4809 61.9614 14.3048 61.7614 14.0844C61.5614 13.864 61.4097 13.6042 61.3161 13.3216C61.2225 13.0391 61.189 12.7401 61.2178 12.4439V12.4439ZM64.5508 12.4439C64.5508 11.4678 64.1123 10.897 63.3428 10.897C62.5703 10.897 62.1358 11.4678 62.1358 12.4439C62.1358 13.4278 62.5704 13.9942 63.3428 13.9942C64.1123 13.9942 64.5508 13.4239 64.5508 12.4439H64.5508Z" fill="white"/>
<path d="M66.4009 13.4238C66.4009 12.6133 67.0044 12.146 68.0757 12.0796L69.2954 12.0093V11.6206C69.2954 11.145 68.981 10.8765 68.3735 10.8765C67.8774 10.8765 67.5337 11.0586 67.4351 11.377H66.5747C66.6655 10.6035 67.3931 10.1074 68.4146 10.1074C69.5435 10.1074 70.1802 10.6694 70.1802 11.6206V14.6973H69.3247V14.0645H69.2544C69.1117 14.2914 68.9113 14.4765 68.6737 14.6007C68.436 14.7249 68.1697 14.7838 67.9019 14.7715C67.7128 14.7911 67.5218 14.7709 67.341 14.7122C67.1602 14.6536 66.9938 14.5576 66.8524 14.4307C66.711 14.3037 66.5977 14.1485 66.52 13.9751C66.4422 13.8017 66.4016 13.6139 66.4009 13.4238V13.4238ZM69.2954 13.0391V12.6626L68.1958 12.7329C67.5757 12.7744 67.2944 12.9853 67.2944 13.3823C67.2944 13.7876 67.646 14.0234 68.1294 14.0234C68.2711 14.0378 68.4142 14.0235 68.5502 13.9814C68.6862 13.9393 68.8123 13.8703 68.9211 13.7784C69.0299 13.6866 69.1191 13.5738 69.1834 13.4468C69.2477 13.3198 69.2858 13.1811 69.2954 13.0391V13.0391Z" fill="white"/>
<path d="M71.3481 12.4439C71.3481 11.021 72.0796 10.1196 73.2173 10.1196C73.4987 10.1067 73.778 10.1741 74.0225 10.314C74.267 10.4539 74.4667 10.6605 74.5981 10.9096H74.6646V8.43652H75.5532V14.6973H74.7017V13.9858H74.6314C74.4897 14.2333 74.2831 14.4374 74.0339 14.5758C73.7846 14.7143 73.5022 14.782 73.2173 14.7715C72.0718 14.7715 71.3481 13.8701 71.3481 12.4439ZM72.2661 12.4439C72.2661 13.3989 72.7163 13.9737 73.4693 13.9737C74.2183 13.9737 74.6812 13.3907 74.6812 12.4478C74.6812 11.5093 74.2134 10.918 73.4693 10.918C72.7212 10.918 72.2661 11.4966 72.2661 12.4439H72.2661Z" fill="white"/>
<path d="M79.23 12.4439C79.2016 12.148 79.2355 11.8494 79.3293 11.5674C79.4232 11.2853 79.5749 11.026 79.7749 10.806C79.9748 10.586 80.2185 10.4102 80.4904 10.2899C80.7622 10.1697 81.0562 10.1075 81.3535 10.1075C81.6508 10.1075 81.9447 10.1697 82.2166 10.2899C82.4884 10.4102 82.7322 10.586 82.9321 10.806C83.132 11.026 83.2838 11.2853 83.3776 11.5674C83.4715 11.8494 83.5053 12.148 83.477 12.4439C83.5059 12.7401 83.4724 13.0391 83.3788 13.3217C83.2852 13.6042 83.1336 13.864 82.9336 14.0844C82.7336 14.3048 82.4897 14.481 82.2176 14.6015C81.9454 14.722 81.6511 14.7843 81.3535 14.7843C81.0559 14.7843 80.7615 14.722 80.4894 14.6015C80.2173 14.481 79.9734 14.3048 79.7734 14.0844C79.5734 13.864 79.4217 13.6042 79.3281 13.3217C79.2346 13.0391 79.2011 12.7401 79.23 12.4439V12.4439ZM82.563 12.4439C82.563 11.4679 82.1245 10.8971 81.355 10.8971C80.5825 10.8971 80.148 11.4679 80.148 12.4439C80.148 13.4278 80.5825 13.9942 81.355 13.9942C82.1245 13.9942 82.563 13.4239 82.563 12.4439Z" fill="white"/>
<path d="M84.6694 10.1939H85.5249V10.9092H85.5913C85.704 10.6523 85.894 10.4369 86.1348 10.2931C86.3757 10.1493 86.6555 10.0842 86.9351 10.107C87.1542 10.0905 87.3742 10.1235 87.5788 10.2036C87.7834 10.2837 87.9673 10.4088 88.117 10.5697C88.2667 10.7305 88.3783 10.923 88.4435 11.1328C88.5087 11.3426 88.5258 11.5644 88.4937 11.7818V14.6968H87.605V12.0049C87.605 11.2813 87.2905 10.9214 86.6333 10.9214C86.4846 10.9145 86.336 10.9398 86.198 10.9957C86.0599 11.0515 85.9356 11.1365 85.8335 11.2449C85.7313 11.3533 85.6539 11.4825 85.6063 11.6236C85.5588 11.7647 85.5423 11.9145 85.5581 12.0625V14.6968H84.6694V10.1939Z" fill="white"/>
<path d="M93.5151 9.07324V10.2148H94.4907V10.9634H93.5151V13.2788C93.5151 13.7505 93.7095 13.957 94.1519 13.957C94.2651 13.9567 94.3783 13.9498 94.4907 13.9365V14.6768C94.3311 14.7053 94.1694 14.7205 94.0073 14.7222C93.019 14.7222 92.6255 14.3745 92.6255 13.5063V10.9633H91.9106V10.2148H92.6255V9.07324H93.5151Z" fill="white"/>
<path d="M95.7046 8.43652H96.5854V10.918H96.6558C96.7739 10.6587 96.9691 10.4421 97.2148 10.2977C97.4605 10.1534 97.7447 10.0883 98.0288 10.1113C98.2467 10.0995 98.4646 10.1359 98.6669 10.2179C98.8692 10.2999 99.0508 10.4256 99.199 10.586C99.3471 10.7463 99.458 10.9373 99.5238 11.1455C99.5896 11.3536 99.6086 11.5737 99.5795 11.79V14.6973H98.69V12.0093C98.69 11.29 98.355 10.9258 97.7271 10.9258C97.5743 10.9132 97.4207 10.9342 97.2769 10.9873C97.1332 11.0404 97.0027 11.1242 96.8947 11.2329C96.7867 11.3417 96.7038 11.4727 96.6517 11.6168C96.5997 11.761 96.5797 11.9147 96.5933 12.0674V14.6973H95.7046L95.7046 8.43652Z" fill="white"/>
<path d="M104.761 13.4814C104.64 13.8929 104.379 14.2489 104.022 14.4871C103.665 14.7252 103.236 14.8304 102.81 14.7841C102.513 14.792 102.219 14.7351 101.946 14.6176C101.674 14.5001 101.43 14.3247 101.232 14.1035C101.034 13.8824 100.887 13.6208 100.8 13.337C100.713 13.0532 100.689 12.7539 100.73 12.4599C100.69 12.165 100.715 11.8651 100.801 11.5804C100.888 11.2958 101.034 11.033 101.231 10.8099C101.428 10.5868 101.671 10.4087 101.942 10.2875C102.214 10.1663 102.509 10.1048 102.806 10.1074C104.059 10.1074 104.815 10.9634 104.815 12.3774V12.6875H101.635V12.7373C101.621 12.9025 101.642 13.0688 101.696 13.2256C101.75 13.3823 101.837 13.5261 101.95 13.6475C102.062 13.769 102.199 13.8655 102.352 13.9309C102.504 13.9963 102.669 14.0291 102.834 14.0273C103.047 14.0528 103.262 14.0145 103.453 13.9173C103.644 13.8201 103.801 13.6683 103.906 13.4814L104.761 13.4814ZM101.635 12.0302H103.91C103.921 11.8791 103.9 11.7273 103.849 11.5846C103.798 11.4419 103.718 11.3114 103.614 11.2015C103.509 11.0917 103.383 11.0049 103.243 10.9467C103.103 10.8885 102.953 10.8603 102.801 10.8637C102.648 10.8618 102.495 10.8907 102.353 10.9486C102.21 11.0065 102.081 11.0924 101.972 11.2011C101.864 11.3098 101.778 11.4392 101.72 11.5816C101.662 11.724 101.633 11.8765 101.635 12.0302H101.635Z" fill="white"/>
</svg>
