<svg width="24" height="25" viewBox="0 0 24 25" fill="none" xmlns="http://www.w3.org/2000/svg">
<path d="M17.812 5.88577H6.145C3.855 5.88577 2 7.72077 2 9.98477V15.7528C2 18.0168 3.856 19.8528 6.145 19.8528H17.812C20.102 19.8528 21.957 18.0168 21.957 15.7528V9.98477C21.957 7.72077 20.101 5.88477 17.812 5.88477V5.88577ZM15.009 13.1488L9.552 15.7238C9.51872 15.7398 9.48192 15.7471 9.44503 15.7451C9.40815 15.7431 9.37237 15.7318 9.34103 15.7122C9.3097 15.6927 9.28382 15.6655 9.2658 15.6332C9.24779 15.601 9.23822 15.5647 9.238 15.5278V10.2188C9.23867 10.1816 9.24872 10.1453 9.26722 10.1131C9.28573 10.0809 9.31208 10.0539 9.34382 10.0346C9.37556 10.0154 9.41167 10.0045 9.44877 10.0029C9.48587 10.0014 9.52276 10.0092 9.556 10.0258L15.014 12.7608C15.0504 12.7789 15.0809 12.8069 15.102 12.8416C15.1232 12.8763 15.1341 12.9162 15.1336 12.9568C15.1331 12.9975 15.1211 13.0371 15.0991 13.0712C15.077 13.1054 15.0458 13.1326 15.009 13.1498V13.1488Z" fill="#475569"/>
</svg>
