<svg width="25" height="24" viewBox="0 0 25 24" fill="none" xmlns="http://www.w3.org/2000/svg">
<path d="M14.15 11.3999V6.3999C14.15 6.13469 14.0447 5.88033 13.8571 5.6928C13.6696 5.50526 13.4152 5.3999 13.15 5.3999C12.8848 5.3999 12.6305 5.50526 12.4429 5.6928C12.2554 5.88033 12.15 6.13469 12.15 6.3999V11.3999H7.15002C6.88481 11.3999 6.63045 11.5053 6.44292 11.6928C6.25538 11.8803 6.15002 12.1347 6.15002 12.3999C6.15002 12.6651 6.25538 12.9195 6.44292 13.107C6.63045 13.2945 6.88481 13.3999 7.15002 13.3999H12.15V18.3999C12.15 18.6651 12.2554 18.9195 12.4429 19.107C12.6305 19.2945 12.8848 19.3999 13.15 19.3999C13.4152 19.3999 13.6696 19.2945 13.8571 19.107C14.0447 18.9195 14.15 18.6651 14.15 18.3999V13.3999H19.15C19.4152 13.3999 19.6696 13.2945 19.8571 13.107C20.0447 12.9195 20.15 12.6651 20.15 12.3999C20.15 12.1347 20.0447 11.8803 19.8571 11.6928C19.6696 11.5053 19.4152 11.3999 19.15 11.3999H14.15Z" fill="#2563EB"/>
</svg>
