<svg width="65" height="64" viewBox="0 0 65 64" fill="none" xmlns="http://www.w3.org/2000/svg">
<path d="M46.5 12H18.5C17.9696 12 17.4609 11.7893 17.0858 11.4142C16.7107 11.0391 16.5 10.5304 16.5 10C16.5 9.46957 16.7107 8.96086 17.0858 8.58579C17.4609 8.21071 17.9696 8 18.5 8H46.5C47.0304 8 47.5391 8.21071 47.9142 8.58579C48.2893 8.96086 48.5 9.46957 48.5 10C48.5 10.5304 48.2893 11.0391 47.9142 11.4142C47.5391 11.7893 47.0304 12 46.5 12Z" fill="white"/>
<path d="M50.5 18H14.5C13.9696 18 13.4609 17.7893 13.0858 17.4142C12.7107 17.0391 12.5 16.5304 12.5 16C12.5 15.4696 12.7107 14.9609 13.0858 14.5858C13.4609 14.2107 13.9696 14 14.5 14H50.5C51.0304 14 51.5391 14.2107 51.9142 14.5858C52.2893 14.9609 52.5 15.4696 52.5 16C52.5 16.5304 52.2893 17.0391 51.9142 17.4142C51.5391 17.7893 51.0304 18 50.5 18Z" fill="white"/>
<path d="M52.8913 56H12.1088C10.6217 55.9983 9.19608 55.4069 8.14459 54.3554C7.09311 53.3039 6.50165 51.8783 6.5 50.3913V25.6087C6.50165 24.1217 7.09311 22.6961 8.14459 21.6446C9.19608 20.5931 10.6217 20.0017 12.1088 20H52.8913C54.3783 20.0017 55.8039 20.5931 56.8554 21.6446C57.9069 22.6961 58.4983 24.1217 58.5 25.6087V50.3913C58.4983 51.8783 57.9069 53.3039 56.8554 54.3554C55.8039 55.4069 54.3783 55.9983 52.8913 56V56Z" fill="white"/>
</svg>
