<svg width="25" height="25" viewBox="0 0 25 25" fill="none" xmlns="http://www.w3.org/2000/svg">
<path d="M16.2527 11.5258L12.3027 7.57578C12.1206 7.38718 12.0198 7.13458 12.0221 6.87238C12.0244 6.61019 12.1295 6.35937 12.3149 6.17397C12.5003 5.98856 12.7511 5.88339 13.0133 5.88111C13.2755 5.87883 13.5281 5.97963 13.7167 6.16178L19.3737 11.8188C19.4669 11.9114 19.5409 12.0216 19.5913 12.1429C19.6418 12.2643 19.6678 12.3944 19.6678 12.5258C19.6678 12.6572 19.6418 12.7873 19.5913 12.9086C19.5409 13.03 19.4669 13.1401 19.3737 13.2328L13.7167 18.8898C13.6245 18.9853 13.5142 19.0615 13.3922 19.1139C13.2701 19.1663 13.1389 19.1939 13.0061 19.195C12.8734 19.1962 12.7417 19.1709 12.6188 19.1206C12.4959 19.0703 12.3842 18.9961 12.2904 18.9022C12.1965 18.8083 12.1222 18.6966 12.0719 18.5737C12.0216 18.4508 11.9963 18.3192 11.9975 18.1864C11.9987 18.0536 12.0262 17.9224 12.0786 17.8004C12.1311 17.6784 12.2072 17.568 12.3027 17.4758L16.2527 13.5258H6.66675C6.40153 13.5258 6.14718 13.4204 5.95964 13.2329C5.7721 13.0454 5.66675 12.791 5.66675 12.5258C5.66675 12.2606 5.7721 12.0062 5.95964 11.8187C6.14718 11.6311 6.40153 11.5258 6.66675 11.5258H16.2527V11.5258Z" fill="white"/>
</svg>
