<svg width="24" height="25" viewBox="0 0 24 25" fill="none" xmlns="http://www.w3.org/2000/svg">
<path d="M12.0709 13.814L17.0209 8.864C17.1131 8.76849 17.2235 8.69231 17.3455 8.6399C17.4675 8.58749 17.5987 8.55991 17.7315 8.55875C17.8643 8.5576 17.996 8.5829 18.1189 8.63318C18.2417 8.68346 18.3534 8.75772 18.4473 8.85161C18.5412 8.9455 18.6154 9.05715 18.6657 9.18005C18.716 9.30295 18.7413 9.43463 18.7402 9.56741C18.739 9.70018 18.7114 9.8314 18.659 9.95341C18.6066 10.0754 18.5304 10.1858 18.4349 10.278L12.7779 15.935C12.5904 16.1225 12.3361 16.2278 12.0709 16.2278C11.8057 16.2278 11.5514 16.1225 11.3639 15.935L5.7069 10.278C5.61139 10.1858 5.53521 10.0754 5.4828 9.95341C5.43039 9.8314 5.4028 9.70018 5.40165 9.56741C5.4005 9.43463 5.4258 9.30295 5.47608 9.18005C5.52636 9.05715 5.60061 8.9455 5.6945 8.85161C5.7884 8.75772 5.90005 8.68346 6.02295 8.63318C6.14584 8.5829 6.27752 8.5576 6.4103 8.55875C6.54308 8.55991 6.6743 8.58749 6.7963 8.6399C6.91831 8.69231 7.02865 8.76849 7.1209 8.864L12.0709 13.814Z" fill="#0F172A"/>
</svg>
