<svg width="24" height="25" viewBox="0 0 24 25" fill="none" xmlns="http://www.w3.org/2000/svg">
<path d="M20 20.5V9.63205L12 4.83205L4 9.63205V20.5H8V17.7501C8 16.6892 8.42143 15.6718 9.17157 14.9216C9.92172 14.1715 10.9391 13.7501 12 13.7501C13.0609 13.7501 14.0783 14.1715 14.8284 14.9216C15.5786 15.6718 16 16.6892 16 17.7501V20.5H20ZM14 22.5V17.7501C14 17.2196 13.7893 16.7109 13.4142 16.3358C13.0391 15.9608 12.5304 15.7501 12 15.7501C11.4696 15.7501 10.9609 15.9608 10.5858 16.3358C10.2107 16.7109 10 17.2196 10 17.7501V22.5H4C3.46957 22.5 2.96086 22.2893 2.58579 21.9143C2.21071 21.5392 2 21.0305 2 20.5V9.63205C2 9.28668 2.08943 8.94719 2.25959 8.64665C2.42976 8.3461 2.67485 8.09474 2.971 7.91705L10.971 3.11705C11.2818 2.93055 11.6375 2.83203 12 2.83203C12.3625 2.83203 12.7182 2.93055 13.029 3.11705L21.029 7.91705C21.3252 8.09474 21.5702 8.3461 21.7404 8.64665C21.9106 8.94719 22 9.28668 22 9.63205V20.5C22 21.0305 21.7893 21.5392 21.4142 21.9143C21.0391 22.2893 20.5304 22.5 20 22.5H14Z" fill="#0F172A"/>
</svg>
