<svg width="24" height="25" viewBox="0 0 24 25" fill="none" xmlns="http://www.w3.org/2000/svg">
<path d="M21.959 14.5875V21.9665H17.681V15.0815C17.681 13.3515 17.062 12.1715 15.514 12.1715C14.332 12.1715 13.628 12.9675 13.319 13.7365C13.206 14.0115 13.177 14.3945 13.177 14.7795V21.9665H8.897C8.897 21.9665 8.955 10.3065 8.897 9.09753H13.177V10.9215L13.149 10.9635H13.177V10.9215C13.745 10.0465 14.76 8.79553 17.033 8.79553C19.848 8.79553 21.959 10.6355 21.959 14.5875ZM4.421 2.89453C2.958 2.89453 2 3.85453 2 5.11753C2 6.35253 2.93 7.34153 4.365 7.34153H4.393C5.886 7.34153 6.813 6.35253 6.813 5.11753C6.787 3.85453 5.887 2.89453 4.422 2.89453H4.421ZM2.254 21.9665H6.532V9.09753H2.254V21.9665Z" fill="#475569"/>
</svg>
