<svg width="25" height="24" viewBox="0 0 25 24" fill="none" xmlns="http://www.w3.org/2000/svg">
<path d="M22.459 13.719V21.098H18.181V14.213C18.181 12.483 17.562 11.303 16.014 11.303C14.832 11.303 14.128 12.099 13.819 12.868C13.706 13.143 13.677 13.526 13.677 13.911V21.098H9.397C9.397 21.098 9.455 9.438 9.397 8.229H13.677V10.053L13.649 10.095H13.677V10.053C14.245 9.178 15.26 7.927 17.533 7.927C20.348 7.927 22.459 9.767 22.459 13.719ZM4.921 2.026C3.458 2.026 2.5 2.986 2.5 4.249C2.5 5.484 3.43 6.473 4.865 6.473H4.893C6.386 6.473 7.313 5.484 7.313 4.249C7.287 2.986 6.387 2.026 4.922 2.026H4.921ZM2.754 21.098H7.032V8.229H2.754V21.098Z" fill="#475569"/>
</svg>
