<svg width="24" height="25" viewBox="0 0 24 25" fill="none" xmlns="http://www.w3.org/2000/svg">
<path d="M15.586 11.5258L11.636 7.57578C11.4538 7.38718 11.353 7.13458 11.3553 6.87238C11.3576 6.61019 11.4628 6.35937 11.6482 6.17397C11.8336 5.98856 12.0844 5.88339 12.3466 5.88111C12.6088 5.87883 12.8614 5.97963 13.05 6.16178L18.707 11.8188C18.8002 11.9114 18.8741 12.0216 18.9246 12.1429C18.9751 12.2643 19.001 12.3944 19.001 12.5258C19.001 12.6572 18.9751 12.7873 18.9246 12.9086C18.8741 13.03 18.8002 13.1401 18.707 13.2328L13.05 18.8898C12.9578 18.9853 12.8474 19.0615 12.7254 19.1139C12.6034 19.1663 12.4722 19.1939 12.3394 19.195C12.2066 19.1962 12.0749 19.1709 11.952 19.1206C11.8291 19.0703 11.7175 18.9961 11.6236 18.9022C11.5297 18.8083 11.4555 18.6966 11.4052 18.5737C11.3549 18.4508 11.3296 18.3192 11.3307 18.1864C11.3319 18.0536 11.3595 17.9224 11.4119 17.8004C11.4643 17.6784 11.5405 17.568 11.636 17.4758L15.586 13.5258H6C5.73478 13.5258 5.48043 13.4204 5.29289 13.2329C5.10536 13.0454 5 12.791 5 12.5258C5 12.2606 5.10536 12.0062 5.29289 11.8187C5.48043 11.6311 5.73478 11.5258 6 11.5258H15.586V11.5258Z" fill="#2563EB"/>
</svg>
