<svg width="25" height="24" viewBox="0 0 25 24" fill="none" xmlns="http://www.w3.org/2000/svg">
<path d="M18.312 5.01699H6.645C4.355 5.01699 2.5 6.85199 2.5 9.11599V14.884C2.5 17.148 4.356 18.984 6.645 18.984H18.312C20.602 18.984 22.457 17.148 22.457 14.884V9.11599C22.457 6.85199 20.601 5.01599 18.312 5.01599V5.01699ZM15.509 12.28L10.052 14.855C10.0187 14.871 9.98192 14.8784 9.94503 14.8763C9.90815 14.8743 9.87237 14.863 9.84103 14.8434C9.8097 14.8239 9.78382 14.7967 9.7658 14.7645C9.74779 14.7322 9.73822 14.6959 9.738 14.659V9.34999C9.73867 9.31286 9.74872 9.27651 9.76722 9.24432C9.78573 9.21212 9.81208 9.18513 9.84382 9.16587C9.87556 9.1466 9.91167 9.13568 9.94877 9.13413C9.98587 9.13258 10.0228 9.14044 10.056 9.15699L15.514 11.892C15.5504 11.9101 15.5809 11.9381 15.602 11.9728C15.6232 12.0075 15.6341 12.0474 15.6336 12.0881C15.6331 12.1287 15.6211 12.1683 15.5991 12.2025C15.577 12.2366 15.5458 12.2638 15.509 12.281V12.28Z" fill="#475569"/>
</svg>
