<svg width="24" height="25" viewBox="0 0 24 25" fill="none" xmlns="http://www.w3.org/2000/svg">
<path d="M16.017 2.86865H7.947C6.37015 2.87051 4.85844 3.49779 3.74353 4.61289C2.62862 5.72798 2.00159 7.23981 2 8.81665L2 16.8867C2.00185 18.4635 2.62914 19.9752 3.74424 21.0901C4.85933 22.205 6.37115 22.8321 7.948 22.8337H16.018C17.5948 22.8318 19.1066 22.2045 20.2215 21.0894C21.3364 19.9743 21.9634 18.4625 21.965 16.8857V8.81565C21.9631 7.23881 21.3359 5.72709 20.2208 4.61218C19.1057 3.49728 17.5938 2.87024 16.017 2.86865V2.86865ZM19.957 16.8857C19.957 17.4031 19.8551 17.9154 19.6571 18.3934C19.4591 18.8714 19.1689 19.3058 18.803 19.6717C18.4371 20.0375 18.0028 20.3277 17.5248 20.5257C17.0468 20.7237 16.5344 20.8257 16.017 20.8257H7.947C6.90222 20.8254 5.90032 20.4102 5.16165 19.6713C4.42297 18.9324 4.008 17.9304 4.008 16.8857V8.81565C4.00827 7.77087 4.42349 6.76898 5.16235 6.0303C5.90122 5.29162 6.90322 4.87665 7.948 4.87665H16.018C17.0628 4.87692 18.0647 5.29214 18.8034 6.03101C19.542 6.76987 19.957 7.77187 19.957 8.81665V16.8867V16.8857Z" fill="#475569"/>
<path d="M11.9819 7.68774C10.6134 7.68986 9.30148 8.23453 8.33385 9.20235C7.36621 10.1702 6.8218 11.4822 6.81995 12.8507C6.82153 14.2197 7.36597 15.5321 8.33385 16.5001C9.30172 17.4682 10.614 18.0129 11.9829 18.0147C13.352 18.0132 14.6646 17.4686 15.6327 16.5005C16.6008 15.5324 17.1454 14.2198 17.1469 12.8507C17.1448 11.4818 16.5999 10.1696 15.6316 9.20194C14.6634 8.23425 13.3509 7.69007 11.9819 7.68874V7.68774ZM11.9819 16.0067C11.1452 16.0067 10.3427 15.6743 9.75102 15.0827C9.15935 14.491 8.82695 13.6885 8.82695 12.8517C8.82695 12.015 9.15935 11.2125 9.75102 10.6208C10.3427 10.0291 11.1452 9.69674 11.9819 9.69674C12.8187 9.69674 13.6212 10.0291 14.2129 10.6208C14.8045 11.2125 15.1369 12.015 15.1369 12.8517C15.1369 13.6885 14.8045 14.491 14.2129 15.0827C13.6212 15.6743 12.8187 16.0067 11.9819 16.0067Z" fill="#475569"/>
<path d="M17.1559 8.96375C17.8391 8.96375 18.3929 8.40992 18.3929 7.72675C18.3929 7.04357 17.8391 6.48975 17.1559 6.48975C16.4728 6.48975 15.9189 7.04357 15.9189 7.72675C15.9189 8.40992 16.4728 8.96375 17.1559 8.96375Z" fill="#475569"/>
</svg>
