<svg width="25" height="24" viewBox="0 0 25 24" fill="none" xmlns="http://www.w3.org/2000/svg">
<path d="M11.17 15.0969C10.664 17.8229 10.048 20.4369 8.22002 21.8019C7.65702 17.6819 9.04902 14.5869 9.69502 11.3019C8.59302 9.39194 9.82802 5.54694 12.152 6.49394C15.012 7.65994 9.67503 13.5959 13.258 14.3379C16.999 15.1119 18.527 7.65494 16.207 5.22894C12.855 1.72794 6.45002 5.14994 7.23802 10.1629C7.43002 11.3889 8.65902 11.7609 7.72902 13.4529C5.58402 12.9619 4.94402 11.2199 5.02702 8.89694C5.15902 5.09694 8.34402 2.43494 11.538 2.06694C15.578 1.60094 19.369 3.59394 19.892 7.50694C20.482 11.9229 18.069 16.7069 13.75 16.3619C12.579 16.2689 12.087 15.6719 11.17 15.0969V15.0969Z" fill="#475569"/>
</svg>
