<svg width="25" height="24" viewBox="0 0 25 24" fill="none" xmlns="http://www.w3.org/2000/svg">
<path d="M4.752 10C4.58416 10.6534 4.49949 11.3254 4.5 12C4.5 12.69 4.588 13.36 4.752 14H7.6C7.46518 12.6701 7.46518 11.3299 7.6 10H4.752ZM5.57 8H7.916C8.182 6.783 8.566 5.693 9.037 4.786C7.58518 5.48542 6.37722 6.60523 5.57 8V8ZM20.248 10H17.4C17.5348 11.3299 17.5348 12.6701 17.4 14H20.248C20.5847 12.6879 20.5847 11.3121 20.248 10ZM19.43 8C18.6228 6.60523 17.4148 5.48542 15.963 4.786C16.435 5.693 16.818 6.783 17.084 8H19.43ZM9.612 10C9.53708 10.664 9.49968 11.3318 9.5 12C9.5 12.685 9.538 13.355 9.612 14H15.388C15.5386 12.6709 15.5386 11.3291 15.388 10H9.612ZM9.97 8H15.03C14.848 7.2483 14.5855 6.51841 14.247 5.823C13.619 4.568 12.947 4 12.5 4C12.052 4 11.381 4.568 10.753 5.823C10.438 6.455 10.173 7.19 9.97 8ZM5.57 16C6.37722 17.3948 7.58518 18.5146 9.037 19.214C8.565 18.307 8.182 17.217 7.916 16H5.57V16ZM19.43 16H17.084C16.818 17.217 16.434 18.307 15.963 19.214C17.4148 18.5146 18.6228 17.3948 19.43 16ZM9.97 16C10.173 16.81 10.438 17.545 10.753 18.177C11.381 19.432 12.053 20 12.5 20C12.948 20 13.619 19.432 14.247 18.177C14.562 17.545 14.827 16.81 15.03 16H9.97V16ZM12.5 22C6.977 22 2.5 17.523 2.5 12C2.5 6.477 6.977 2 12.5 2C18.023 2 22.5 6.477 22.5 12C22.5 17.523 18.023 22 12.5 22Z" fill="#475569"/>
</svg>
