<svg width="24" height="25" viewBox="0 0 24 25" fill="none" xmlns="http://www.w3.org/2000/svg">
<path d="M22 6.77557C21.2504 7.10295 20.4565 7.31761 19.644 7.41257C20.4968 6.9118 21.138 6.11768 21.448 5.17857C20.64 5.6489 19.7587 5.98018 18.841 6.15857C18.4545 5.75378 17.9897 5.43196 17.4748 5.21275C16.9598 4.99354 16.4056 4.88154 15.846 4.88357C13.58 4.88357 11.743 6.69357 11.743 8.92357C11.743 9.23957 11.779 9.54857 11.849 9.84357C10.2236 9.76627 8.63212 9.35098 7.17617 8.62421C5.72022 7.89744 4.43176 6.87515 3.393 5.62257C3.02883 6.23697 2.83742 6.93835 2.839 7.65257C2.8397 8.32054 3.00683 8.9778 3.32529 9.56497C3.64375 10.1521 4.1035 10.6507 4.663 11.0156C4.01248 10.9946 3.37602 10.8209 2.805 10.5086V10.5586C2.805 12.5166 4.22 14.1496 6.095 14.5216C5.74261 14.6151 5.37958 14.6625 5.015 14.6626C4.75 14.6626 4.493 14.6376 4.242 14.5876C4.51008 15.3955 5.02311 16.0999 5.70982 16.6029C6.39653 17.1059 7.22284 17.3826 8.074 17.3946C6.61407 18.5191 4.82182 19.1266 2.979 19.1216C2.647 19.1216 2.321 19.1016 2 19.0656C3.88125 20.2563 6.06259 20.8869 8.289 20.8836C15.836 20.8836 19.962 14.7266 19.962 9.38757L19.948 8.86457C20.7529 8.29824 21.4481 7.59042 22 6.77557Z" fill="#475569"/>
</svg>
