<svg width="25" height="24" viewBox="0 0 25 24" fill="none" xmlns="http://www.w3.org/2000/svg">
<g clip-path="url(#clip0_31_3078)">
<path d="M14 0H16.97C17.186 1.0725 17.78 2.4255 18.8225 3.768C19.8425 5.0835 21.1955 6 23 6V9C20.3705 9 18.395 7.779 17 6.2565V16.5C17 17.9834 16.5601 19.4334 15.736 20.6668C14.9119 21.9001 13.7406 22.8614 12.3701 23.4291C10.9997 23.9968 9.49168 24.1453 8.03683 23.8559C6.58197 23.5665 5.2456 22.8522 4.1967 21.8033C3.14781 20.7544 2.4335 19.418 2.14411 17.9632C1.85472 16.5083 2.00325 15.0003 2.57091 13.6299C3.13856 12.2594 4.09986 11.0881 5.33323 10.264C6.5666 9.43987 8.01664 9 9.5 9V12C8.60999 12 7.73996 12.2639 6.99994 12.7584C6.25992 13.2529 5.68314 13.9557 5.34255 14.7779C5.00195 15.6002 4.91284 16.505 5.08647 17.3779C5.2601 18.2508 5.68869 19.0526 6.31802 19.682C6.94736 20.3113 7.74918 20.7399 8.6221 20.9135C9.49501 21.0872 10.3998 20.9981 11.2221 20.6575C12.0443 20.3169 12.7472 19.7401 13.2416 19.0001C13.7361 18.26 14 17.39 14 16.5V0Z" fill="#475569"/>
</g>
<defs>
<clipPath id="clip0_31_3078">
<rect width="24" height="24" fill="white" transform="translate(0.5)"/>
</clipPath>
</defs>
</svg>
