<svg width="25" height="24" viewBox="0 0 25 24" fill="none" xmlns="http://www.w3.org/2000/svg">
<path d="M12.5098 2C6.98977 2 2.50977 6.48 2.50977 12C2.50977 17.52 6.98977 22 12.5098 22C18.0198 22 22.5098 17.52 22.5098 12C22.5098 6.48 18.0198 2 12.5098 2ZM19.1148 6.61C20.3455 8.10931 21.0265 9.98437 21.0448 11.924C20.7638 11.87 17.9438 11.295 15.1018 11.653C15.0368 11.512 14.9818 11.36 14.9178 11.208C14.7408 10.791 14.5527 10.3789 14.3538 9.972C17.4988 8.692 18.9308 6.848 19.1148 6.61V6.61ZM12.5098 3.475C14.6798 3.475 16.6638 4.288 18.1718 5.623C18.0198 5.839 16.7288 7.564 13.6918 8.703C12.2928 6.133 10.7418 4.028 10.5028 3.703C11.1606 3.54921 11.8342 3.47269 12.5098 3.475V3.475ZM8.87677 4.278C10.0212 5.86432 11.0784 7.51175 12.0438 9.213C8.05177 10.275 4.52677 10.253 4.14777 10.253C4.42259 8.96013 4.99237 7.74822 5.81267 6.71179C6.63296 5.67537 7.68159 4.84245 8.87677 4.278V4.278ZM3.96277 12.01V11.75C4.33277 11.76 8.47477 11.815 12.7378 10.535C12.9878 11.012 13.2148 11.5 13.4318 11.988C13.3228 12.021 13.2038 12.053 13.0958 12.086C8.69177 13.506 6.34877 17.389 6.15377 17.715C4.7436 16.1495 3.9634 14.117 3.96377 12.01H3.96277ZM12.5098 20.547C10.6112 20.5502 8.76643 19.9164 7.27077 18.747C7.42277 18.432 9.15877 15.091 13.9738 13.41C13.9958 13.4 14.0068 13.4 14.0278 13.388C14.8401 15.4834 15.4505 17.6516 15.8508 19.863C14.7956 20.317 13.6585 20.5498 12.5098 20.547V20.547ZM17.2708 19.082C17.1848 18.562 16.7288 16.067 15.6118 12.998C18.2908 12.575 20.6338 13.269 20.9258 13.367C20.7434 14.5201 20.3246 15.623 19.6956 16.6065C19.0666 17.59 18.241 18.4328 17.2708 19.082V19.082Z" fill="#475569"/>
</svg>
