<svg width="25" height="24" viewBox="0 0 25 24" fill="none" xmlns="http://www.w3.org/2000/svg">
<g clip-path="url(#clip0_31_3074)">
<path d="M14.0375 12C14.0375 15.7275 11.0075 18.75 7.268 18.75C6.3804 18.7512 5.50125 18.5775 4.68076 18.239C3.86026 17.9004 3.11449 17.4035 2.48603 16.7767C1.85756 16.1499 1.3587 15.4055 1.01794 14.5859C0.677178 13.7663 0.501181 12.8876 0.5 12C0.5 8.27101 3.53 5.25001 7.268 5.25001C8.15573 5.24863 9.03504 5.42214 9.8557 5.76063C10.6764 6.09912 11.4223 6.59596 12.0509 7.22278C12.6796 7.84959 13.1786 8.5941 13.5194 9.41379C13.8603 10.2335 14.0363 11.1123 14.0375 12V12ZM21.4625 12C21.4625 15.51 19.9475 18.354 18.0785 18.354C16.2095 18.354 14.6945 15.5085 14.6945 12C14.6945 8.49001 16.2095 5.64601 18.0785 5.64601C19.9475 5.64601 21.4625 8.49151 21.4625 12ZM24.5 12C24.5 15.144 23.9675 17.6925 23.309 17.6925C22.652 17.6925 22.1195 15.1425 22.1195 12C22.1195 8.85601 22.652 6.30751 23.3105 6.30751C23.9675 6.30751 24.5 8.85601 24.5 12Z" fill="#475569"/>
</g>
<defs>
<clipPath id="clip0_31_3074">
<rect width="24" height="24" fill="white" transform="translate(0.5)"/>
</clipPath>
</defs>
</svg>
