<svg width="25" height="24" viewBox="0 0 25 24" fill="none" xmlns="http://www.w3.org/2000/svg">
<path d="M16.086 10.657L12.136 6.70704C11.9538 6.51844 11.853 6.26584 11.8553 6.00364C11.8576 5.74144 11.9628 5.49063 12.1482 5.30522C12.3336 5.11981 12.5844 5.01465 12.8466 5.01237C13.1088 5.01009 13.3614 5.11088 13.55 5.29304L19.207 10.95C19.3002 11.0427 19.3741 11.1529 19.4246 11.2742C19.4751 11.3955 19.501 11.5256 19.501 11.657C19.501 11.7884 19.4751 11.9186 19.4246 12.0399C19.3741 12.1612 19.3002 12.2714 19.207 12.364L13.55 18.021C13.4578 18.1166 13.3474 18.1927 13.2254 18.2451C13.1034 18.2976 12.9722 18.3251 12.8394 18.3263C12.7066 18.3274 12.5749 18.3021 12.452 18.2519C12.3291 18.2016 12.2175 18.1273 12.1236 18.0334C12.0297 17.9395 11.9555 17.8279 11.9052 17.705C11.8549 17.5821 11.8296 17.4504 11.8307 17.3176C11.8319 17.1849 11.8595 17.0536 11.9119 16.9316C11.9643 16.8096 12.0405 16.6993 12.136 16.607L16.086 12.657H6.5C6.23478 12.657 5.98043 12.5517 5.79289 12.3641C5.60536 12.1766 5.5 11.9223 5.5 11.657C5.5 11.3918 5.60536 11.1375 5.79289 10.9499C5.98043 10.7624 6.23478 10.657 6.5 10.657H16.086V10.657Z" fill="#475569"/>
</svg>
