<svg width="24" height="25" viewBox="0 0 24 25" fill="none" xmlns="http://www.w3.org/2000/svg">
<path fill-rule="evenodd" clip-rule="evenodd" d="M3 8C3 7.58579 3.33579 7.25 3.75 7.25H20.25C20.6642 7.25 21 7.58579 21 8C21 8.41421 20.6642 8.75 20.25 8.75H3.75C3.33579 8.75 3 8.41421 3 8Z" fill="#0F172A"/>
<path fill-rule="evenodd" clip-rule="evenodd" d="M3 12.5C3 12.0858 3.33579 11.75 3.75 11.75H20.25C20.6642 11.75 21 12.0858 21 12.5C21 12.9142 20.6642 13.25 20.25 13.25H3.75C3.33579 13.25 3 12.9142 3 12.5Z" fill="#0F172A"/>
<path fill-rule="evenodd" clip-rule="evenodd" d="M3 17C3 16.5858 3.33579 16.25 3.75 16.25H20.25C20.6642 16.25 21 16.5858 21 17C21 17.4142 20.6642 17.75 20.25 17.75H3.75C3.33579 17.75 3 17.4142 3 17Z" fill="#0F172A"/>
</svg>
