<svg width="25" height="24" viewBox="0 0 25 24" fill="none" xmlns="http://www.w3.org/2000/svg">
<path d="M16.336 10.6569L12.386 6.70692C12.2038 6.51832 12.103 6.26571 12.1053 6.00352C12.1076 5.74132 12.2128 5.49051 12.3982 5.3051C12.5836 5.11969 12.8344 5.01452 13.0966 5.01224C13.3588 5.00997 13.6114 5.11076 13.8 5.29292L19.457 10.9499C19.5502 11.0426 19.6241 11.1527 19.6746 11.2741C19.7251 11.3954 19.751 11.5255 19.751 11.6569C19.751 11.7883 19.7251 11.9184 19.6746 12.0398C19.6241 12.1611 19.5502 12.2713 19.457 12.3639L13.8 18.0209C13.7078 18.1164 13.5974 18.1926 13.4754 18.245C13.3534 18.2974 13.2222 18.325 13.0894 18.3262C12.9566 18.3273 12.8249 18.302 12.702 18.2517C12.5791 18.2015 12.4675 18.1272 12.3736 18.0333C12.2797 17.9394 12.2055 17.8278 12.1552 17.7049C12.1049 17.582 12.0796 17.4503 12.0807 17.3175C12.0819 17.1847 12.1095 17.0535 12.1619 16.9315C12.2143 16.8095 12.2905 16.6992 12.386 16.6069L16.336 12.6569H6.75C6.48478 12.6569 6.23043 12.5516 6.04289 12.364C5.85536 12.1765 5.75 11.9221 5.75 11.6569C5.75 11.3917 5.85536 11.1373 6.04289 10.9498C6.23043 10.7623 6.48478 10.6569 6.75 10.6569H16.336V10.6569Z" fill="#2563EB"/>
</svg>
