<svg width="25" height="24" viewBox="0 0 25 24" fill="none" xmlns="http://www.w3.org/2000/svg">
<path d="M20.525 7.26899H15.524V6.02699H20.525V7.26899V7.26899ZM12.195 12.363C12.517 12.863 12.678 13.47 12.678 14.182C12.678 14.919 12.496 15.58 12.127 16.164C11.8994 16.5425 11.6009 16.8735 11.248 17.139C10.8344 17.4513 10.3548 17.6647 9.846 17.763C9.26885 17.878 8.68149 17.934 8.093 17.93H2.5V5.51099H8.498C10.009 5.53599 11.08 5.97399 11.714 6.83399C12.094 7.36199 12.282 7.99399 12.282 8.73099C12.282 9.48999 12.092 10.097 11.708 10.559C11.495 10.818 11.18 11.053 10.763 11.266C11.394 11.497 11.873 11.861 12.194 12.363H12.195ZM5.365 10.408H7.992C8.532 10.408 8.969 10.305 9.305 10.1C9.641 9.89499 9.809 9.52999 9.809 9.00799C9.809 8.42999 9.587 8.04699 9.142 7.86199C8.759 7.73399 8.27 7.66799 7.676 7.66799H5.364V10.408H5.365ZM10.062 14.005C10.062 13.36 9.798 12.914 9.272 12.675C8.977 12.538 8.562 12.469 8.03 12.464H5.364V15.774H7.99C8.529 15.774 8.946 15.703 9.247 15.556C9.79 15.285 10.063 14.77 10.063 14.005H10.062ZM22.38 11.985C22.44 12.391 22.468 12.98 22.457 13.751H15.98C16.016 14.645 16.324 15.27 16.91 15.628C17.263 15.852 17.69 15.962 18.192 15.962C18.72 15.962 19.151 15.828 19.482 15.553C19.663 15.408 19.822 15.203 19.96 14.943H22.334C22.272 15.471 21.986 16.007 21.473 16.551C20.677 17.416 19.561 17.85 18.127 17.85C16.943 17.85 15.899 17.484 14.993 16.755C14.09 16.023 13.637 14.837 13.637 13.191C13.637 11.648 14.044 10.467 14.861 9.64499C15.681 8.82099 16.739 8.41099 18.043 8.41099C18.817 8.41099 19.513 8.54899 20.135 8.82699C20.755 9.10499 21.267 9.54299 21.671 10.144C22.036 10.674 22.271 11.286 22.381 11.984L22.38 11.985ZM20.043 12.216C20 11.598 19.793 11.13 19.422 10.81C19.053 10.49 18.592 10.329 18.043 10.329C17.445 10.329 16.983 10.501 16.656 10.839C16.326 11.176 16.12 11.635 16.036 12.216H20.043Z" fill="#475569"/>
</svg>
