<svg width="25" height="24" viewBox="0 0 25 24" fill="none" xmlns="http://www.w3.org/2000/svg">
<path d="M16.517 2H8.447C6.87015 2.00185 5.35844 2.62914 4.24353 3.74424C3.12862 4.85933 2.50159 6.37115 2.5 7.948L2.5 16.018C2.50185 17.5948 3.12914 19.1066 4.24424 20.2215C5.35933 21.3364 6.87115 21.9634 8.448 21.965H16.518C18.0948 21.9631 19.6066 21.3359 20.7215 20.2208C21.8364 19.1057 22.4634 17.5938 22.465 16.017V7.947C22.4631 6.37015 21.8359 4.85844 20.7208 3.74353C19.6057 2.62862 18.0938 2.00159 16.517 2V2ZM20.457 16.017C20.457 16.5344 20.3551 17.0468 20.1571 17.5248C19.9591 18.0028 19.6689 18.4371 19.303 18.803C18.9371 19.1689 18.5028 19.4591 18.0248 19.6571C17.5468 19.8551 17.0344 19.957 16.517 19.957H8.447C7.40222 19.9567 6.40032 19.5415 5.66165 18.8026C4.92297 18.0638 4.508 17.0618 4.508 16.017V7.947C4.50827 6.90222 4.92349 5.90032 5.66235 5.16165C6.40122 4.42297 7.40322 4.008 8.448 4.008H16.518C17.5628 4.00827 18.5647 4.42349 19.3034 5.16235C20.042 5.90122 20.457 6.90322 20.457 7.948V16.018V16.017Z" fill="#475569"/>
<path d="M12.482 6.81897C11.1134 6.82109 9.80154 7.36576 8.83391 8.33358C7.86627 9.3014 7.32186 10.6134 7.32001 11.982C7.32159 13.3509 7.86603 14.6633 8.83391 15.6314C9.80179 16.5994 11.1141 17.1441 12.483 17.146C13.8521 17.1444 15.1647 16.5998 16.1328 15.6317C17.1008 14.6636 17.6454 13.3511 17.647 11.982C17.6449 10.6131 17.0999 9.30085 16.1317 8.33316C15.1634 7.36547 13.8509 6.82129 12.482 6.81997V6.81897ZM12.482 15.138C11.6452 15.138 10.8428 14.8056 10.2511 14.2139C9.65941 13.6222 9.32701 12.8197 9.32701 11.983C9.32701 11.1462 9.65941 10.3437 10.2511 9.75205C10.8428 9.16037 11.6452 8.82797 12.482 8.82797C13.3188 8.82797 14.1213 9.16037 14.7129 9.75205C15.3046 10.3437 15.637 11.1462 15.637 11.983C15.637 12.8197 15.3046 13.6222 14.7129 14.2139C14.1213 14.8056 13.3188 15.138 12.482 15.138Z" fill="#475569"/>
<path d="M17.656 8.09497C18.3392 8.09497 18.893 7.54115 18.893 6.85797C18.893 6.1748 18.3392 5.62097 17.656 5.62097C16.9728 5.62097 16.419 6.1748 16.419 6.85797C16.419 7.54115 16.9728 8.09497 17.656 8.09497Z" fill="#475569"/>
</svg>
