<svg width="25" height="24" viewBox="0 0 25 24" fill="none" xmlns="http://www.w3.org/2000/svg">
<path d="M15.836 10.6569L11.886 6.70692C11.7038 6.51832 11.603 6.26571 11.6053 6.00352C11.6076 5.74132 11.7128 5.49051 11.8982 5.3051C12.0836 5.11969 12.3344 5.01452 12.5966 5.01224C12.8588 5.00997 13.1114 5.11076 13.3 5.29292L18.957 10.9499C19.0502 11.0426 19.1241 11.1527 19.1746 11.2741C19.2251 11.3954 19.251 11.5255 19.251 11.6569C19.251 11.7883 19.2251 11.9184 19.1746 12.0398C19.1241 12.1611 19.0502 12.2713 18.957 12.3639L13.3 18.0209C13.2078 18.1164 13.0974 18.1926 12.9754 18.245C12.8534 18.2974 12.7222 18.325 12.5894 18.3262C12.4566 18.3273 12.3249 18.302 12.202 18.2517C12.0791 18.2015 11.9675 18.1272 11.8736 18.0333C11.7797 17.9394 11.7055 17.8278 11.6552 17.7049C11.6049 17.582 11.5796 17.4503 11.5807 17.3175C11.5819 17.1847 11.6095 17.0535 11.6619 16.9315C11.7143 16.8095 11.7905 16.6992 11.886 16.6069L15.836 12.6569H6.25C5.98478 12.6569 5.73043 12.5516 5.54289 12.364C5.35536 12.1765 5.25 11.9221 5.25 11.6569C5.25 11.3917 5.35536 11.1373 5.54289 10.9498C5.73043 10.7623 5.98478 10.6569 6.25 10.6569H15.836V10.6569Z" fill="white"/>
</svg>
