<svg width="16" height="16" viewBox="0 0 16 16" fill="none" xmlns="http://www.w3.org/2000/svg">
<path d="M7.99998 13.3333C9.41447 13.3333 10.771 12.7713 11.7712 11.7712C12.7714 10.771 13.3333 9.41441 13.3333 7.99992C13.3333 6.58543 12.7714 5.22888 11.7712 4.22868C10.771 3.22849 9.41447 2.66659 7.99998 2.66659C6.58549 2.66659 5.22894 3.22849 4.22874 4.22868C3.22855 5.22888 2.66665 6.58543 2.66665 7.99992C2.66665 9.41441 3.22855 10.771 4.22874 11.7712C5.22894 12.7713 6.58549 13.3333 7.99998 13.3333V13.3333ZM7.99998 14.6666C4.31798 14.6666 1.33331 11.6819 1.33331 7.99992C1.33331 4.31792 4.31798 1.33325 7.99998 1.33325C11.682 1.33325 14.6666 4.31792 14.6666 7.99992C14.6666 11.6819 11.682 14.6666 7.99998 14.6666Z" fill="#22C55E"/>
</svg>
