<svg width="24" height="24" viewBox="0 0 24 24" fill="none" xmlns="http://www.w3.org/2000/svg">
<path d="M6.23439 20.6251C5.94659 20.6246 5.66388 20.5491 5.41408 20.4062C4.85158 20.0874 4.50189 19.4687 4.50189 18.797V5.20321C4.50189 4.52961 4.85158 3.91274 5.41408 3.59399C5.66983 3.44701 5.96037 3.37142 6.25532 3.37513C6.55028 3.37884 6.83883 3.46171 7.0908 3.61508L18.7088 10.5695C18.9509 10.7213 19.1505 10.9321 19.2889 11.1822C19.4272 11.4322 19.4998 11.7134 19.4998 11.9991C19.4998 12.2849 19.4272 12.566 19.2889 12.8161C19.1505 13.0662 18.9509 13.277 18.7088 13.4288L7.08892 20.3851C6.83106 20.541 6.53571 20.6239 6.23439 20.6251V20.6251Z" fill="#2563EB"/>
</svg>
