<svg width="86" height="17" viewBox="0 0 86 17" fill="none" xmlns="http://www.w3.org/2000/svg">
<path d="M27.804 4.74992C26.9615 4.7519 26.1385 5.00368 25.439 5.47342C24.7396 5.94316 24.1951 6.60976 23.8745 7.38893C23.5539 8.16809 23.4716 9.02483 23.6379 9.8508C23.8042 10.6768 24.2117 11.4349 24.8089 12.0293C25.406 12.6236 26.166 13.0276 26.9928 13.19C27.8195 13.3524 28.6759 13.2661 29.4535 12.9418C30.2312 12.6175 30.8952 12.07 31.3617 11.3683C31.8281 10.6667 32.076 9.84247 32.074 8.99992C32.0822 8.43786 31.9772 7.8799 31.7652 7.35927C31.5533 6.83863 31.2387 6.36598 30.8403 5.96943C30.4419 5.57288 29.9678 5.26056 29.4461 5.05105C28.9245 4.84154 28.3661 4.73913 27.804 4.74992V4.74992ZM27.804 11.5799C27.2876 11.616 26.7723 11.496 26.325 11.2353C25.8777 10.9747 25.5192 10.5855 25.2961 10.1184C25.0729 9.65125 24.9954 9.1278 25.0737 8.61607C25.152 8.10434 25.3824 7.628 25.735 7.24896C26.0876 6.86992 26.5461 6.60572 27.0508 6.4907C27.5556 6.37568 28.0832 6.41516 28.5652 6.60401C29.0472 6.79286 29.4613 7.12234 29.7535 7.54963C30.0458 7.97692 30.2028 8.48224 30.204 8.99992C30.2201 9.32794 30.1704 9.65586 30.0578 9.96434C29.9451 10.2728 29.7719 10.5556 29.5482 10.7961C29.3245 11.0366 29.0549 11.2298 28.7554 11.3644C28.4558 11.499 28.1324 11.5723 27.804 11.5799ZM18.484 4.74992C17.6415 4.7519 16.8185 5.00368 16.119 5.47342C15.4196 5.94316 14.8751 6.60976 14.5545 7.38893C14.2339 8.16809 14.1516 9.02483 14.3179 9.8508C14.4842 10.6768 14.8917 11.4349 15.4889 12.0293C16.086 12.6236 16.846 13.0276 17.6728 13.19C18.4995 13.3524 19.3559 13.2661 20.1335 12.9418C20.9112 12.6175 21.5752 12.07 22.0417 11.3683C22.5081 10.6667 22.756 9.84247 22.754 8.99992C22.7622 8.43786 22.6572 7.8799 22.4452 7.35927C22.2333 6.83863 21.9187 6.36598 21.5203 5.96943C21.1219 5.57288 20.6478 5.26056 20.1261 5.05105C19.6045 4.84154 19.0461 4.73913 18.484 4.74992V4.74992ZM18.484 11.5799C17.9676 11.616 17.4523 11.496 17.005 11.2353C16.5577 10.9747 16.1992 10.5855 15.9761 10.1184C15.7529 9.65125 15.6754 9.1278 15.7537 8.61607C15.832 8.10434 16.0624 7.628 16.415 7.24896C16.7676 6.86992 17.2261 6.60572 17.7308 6.4907C18.2356 6.37568 18.7632 6.41516 19.2452 6.60401C19.7272 6.79286 20.1413 7.12234 20.4335 7.54963C20.7258 7.97692 20.8828 8.48224 20.884 8.99992C20.9001 9.32794 20.8504 9.65586 20.7378 9.96434C20.6251 10.2728 20.4519 10.5556 20.2282 10.7961C20.0045 11.0366 19.7349 11.2298 19.4354 11.3644C19.1358 11.499 18.8124 11.5723 18.484 11.5799ZM7.40404 6.05992V7.85992H11.724C11.6563 8.70773 11.3039 9.50772 10.724 10.1299C10.2907 10.5714 9.76949 10.9171 9.19415 11.1444C8.61881 11.3718 8.00214 11.4759 7.38404 11.4499C6.111 11.4499 4.8901 10.9442 3.98993 10.044C3.08975 9.14386 2.58404 7.92296 2.58404 6.64992C2.58404 5.37689 3.08975 4.15599 3.98993 3.25581C4.8901 2.35564 6.111 1.84992 7.38404 1.84992C8.60449 1.83177 9.78294 2.29525 10.664 3.13992L11.934 1.86992C11.338 1.28043 10.6304 0.815813 9.8525 0.503295C9.07464 0.190777 8.24223 0.0366426 7.40404 0.0499221C6.51504 0.0153242 5.6282 0.16055 4.79666 0.476894C3.96513 0.793237 3.20601 1.27419 2.5648 1.89093C1.92358 2.50768 1.41347 3.24751 1.06503 4.06612C0.716591 4.88472 0.536987 5.76524 0.536987 6.65492C0.536987 7.5446 0.716591 8.42512 1.06503 9.24372C1.41347 10.0623 1.92358 10.8022 2.5648 11.4189C3.20601 12.0357 3.96513 12.5166 4.79666 12.833C5.6282 13.1493 6.51504 13.2945 7.40404 13.2599C8.25946 13.2941 9.11243 13.1469 9.90694 12.8281C10.7015 12.5092 11.4195 12.0259 12.014 11.4099C13.0642 10.2563 13.6237 8.73911 13.574 7.17992C13.5776 6.80465 13.5475 6.42981 13.484 6.05992H7.40404ZM52.714 7.45992C52.4532 6.69266 51.9656 6.02271 51.3155 5.53877C50.6655 5.05484 49.8839 4.77974 49.074 4.74992C48.527 4.74885 47.9856 4.85999 47.4833 5.07646C46.9809 5.29293 46.5283 5.61013 46.1534 6.00846C45.7785 6.40678 45.4893 6.87777 45.3036 7.39231C45.118 7.90684 45.0399 8.45399 45.074 8.99992C45.0655 9.91277 45.3525 10.8039 45.8922 11.5402C46.4318 12.2765 47.1952 12.8184 48.0683 13.0851C48.9414 13.3517 49.8773 13.3288 50.7363 13.0196C51.5952 12.7105 52.3311 12.1318 52.834 11.3699L51.384 10.3699C51.1679 10.7302 50.8613 11.0277 50.4947 11.2329C50.1281 11.4382 49.7142 11.544 49.294 11.5399C48.8606 11.5578 48.4319 11.4442 48.0643 11.214C47.6966 10.9837 47.4072 10.6477 47.234 10.2499L52.924 7.89992L52.714 7.45992ZM46.914 8.87992C46.8938 8.5693 46.9357 8.25776 47.0373 7.96354C47.139 7.66932 47.2983 7.39833 47.5059 7.16645C47.7136 6.93456 47.9655 6.74645 48.2467 6.61311C48.528 6.47977 48.8331 6.40389 49.144 6.38992C49.4662 6.37025 49.7871 6.44611 50.0664 6.60799C50.3457 6.76987 50.571 7.01056 50.714 7.29992L46.914 8.87992ZM42.294 12.9999H44.164V0.499923H42.294V12.9999ZM39.234 5.69992H39.164C38.8847 5.38178 38.5399 5.12773 38.1533 4.95514C37.7667 4.78255 37.3474 4.69549 36.924 4.69992C35.8312 4.75292 34.8007 5.22434 34.046 6.01651C33.2913 6.80867 32.8704 7.86082 32.8704 8.95492C32.8704 10.049 33.2913 11.1012 34.046 11.8933C34.8007 12.6855 35.8312 13.1569 36.924 13.2099C37.348 13.2184 37.7686 13.1332 38.1558 12.9603C38.543 12.7875 38.8873 12.5312 39.164 12.2099H39.234V12.8199C39.234 14.4499 38.364 15.3199 36.964 15.3199C36.4964 15.3096 36.0423 15.1606 35.6595 14.8918C35.2767 14.6229 34.9824 14.2464 34.814 13.8099L33.194 14.4799C33.4935 15.2322 34.0143 15.8758 34.6874 16.3258C35.3606 16.7757 36.1544 17.0108 36.964 16.9999C39.154 16.9999 40.964 15.7099 40.964 12.5699V4.99992H39.234V5.69992ZM37.084 11.5799C36.4288 11.5391 35.8139 11.25 35.3643 10.7716C34.9148 10.2932 34.6646 9.66139 34.6646 9.00492C34.6646 8.34846 34.9148 7.71668 35.3643 7.23826C35.8139 6.75984 36.4288 6.47077 37.084 6.42992C37.4043 6.44374 37.7185 6.52184 38.0079 6.65956C38.2973 6.79728 38.5561 6.99182 38.7688 7.2316C38.9816 7.47137 39.1439 7.75149 39.2461 8.05528C39.3484 8.35907 39.3885 8.68032 39.364 8.99992C39.3913 9.32061 39.3533 9.64351 39.2522 9.94908C39.1511 10.2546 38.9891 10.5365 38.776 10.7777C38.5629 11.0189 38.303 11.2143 38.0122 11.3522C37.7214 11.4901 37.4057 11.5676 37.084 11.5799V11.5799ZM61.474 0.499923H56.994V12.9999H58.864V8.25992H61.474C62.007 8.29821 62.5421 8.22629 63.0461 8.04865C63.55 7.87101 64.0119 7.59145 64.403 7.22742C64.7942 6.86338 65.1061 6.42267 65.3194 5.93276C65.5327 5.44285 65.6428 4.91425 65.6428 4.37992C65.6428 3.84559 65.5327 3.317 65.3194 2.82709C65.1061 2.33718 64.7942 1.89647 64.403 1.53243C64.0119 1.16839 63.55 0.888838 63.0461 0.711196C62.5421 0.533554 62.007 0.461634 61.474 0.499923V0.499923ZM61.474 6.49992H58.864V2.23992H61.514C61.7951 2.23992 62.0733 2.29527 62.333 2.40282C62.5926 2.51036 62.8285 2.668 63.0272 2.86671C63.226 3.06543 63.3836 3.30134 63.4911 3.56098C63.5987 3.82062 63.654 4.09889 63.654 4.37992C63.654 4.66095 63.5987 4.93923 63.4911 5.19887C63.3836 5.4585 63.226 5.69441 63.0272 5.89313C62.8285 6.09185 62.5926 6.24948 62.333 6.35702C62.0733 6.46457 61.7951 6.51992 61.514 6.51992L61.474 6.49992ZM73.014 4.70992C72.333 4.66793 71.6547 4.82647 71.0628 5.16594C70.471 5.5054 69.9916 6.0109 69.684 6.61992L71.334 7.30992C71.5008 7.00933 71.751 6.76343 72.0544 6.60195C72.3579 6.44047 72.7016 6.3703 73.044 6.39992C73.2814 6.3722 73.522 6.39202 73.7516 6.45825C73.9812 6.52447 74.1954 6.63576 74.3816 6.78563C74.5677 6.9355 74.7222 7.12095 74.8359 7.33115C74.9497 7.54135 75.0204 7.77209 75.044 8.00992V8.12992C74.4427 7.81384 73.7734 7.64909 73.094 7.64992C71.314 7.64992 69.494 8.64992 69.494 10.4699C69.5116 10.8568 69.6068 11.2361 69.7739 11.5855C69.941 11.9348 70.1766 12.247 70.4667 12.5035C70.7568 12.7601 71.0955 12.9557 71.4626 13.0787C71.8298 13.2018 72.218 13.2498 72.604 13.2199C73.0733 13.2459 73.541 13.1466 73.9592 12.9322C74.3775 12.7178 74.7311 12.3961 74.984 11.9999H75.044V12.9999H76.844V8.18992C76.844 5.99992 75.184 4.72992 73.054 4.72992L73.014 4.70992ZM72.784 11.5599C72.174 11.5599 71.324 11.2499 71.324 10.4999C71.324 9.49992 72.384 9.15992 73.324 9.15992C73.9181 9.14526 74.5052 9.29031 75.024 9.57992C74.9613 10.123 74.7037 10.6249 74.2992 10.9926C73.8947 11.3604 73.3706 11.569 72.824 11.5799L72.784 11.5599ZM83.404 4.99992L81.264 10.4199H81.204L78.984 4.99992H76.984L80.314 12.5799L78.414 16.7899H80.364L85.484 4.99992H83.404ZM66.604 12.9999H68.464V0.499923H66.604V12.9999Z" fill="white"/>
</svg>
